<?xml version="1.0" encoding="utf-8"?>
<!-- Generator: Adobe Illustrator 19.0.0, SVG Export Plug-In . SVG Version: 6.00 Build 0)  -->
<svg version="1.1" id="Layer_1" xmlns="http://www.w3.org/2000/svg" xmlns:xlink="http://www.w3.org/1999/xlink" x="0px" y="0px"
	 viewBox="0 0 66 44" style="enable-background:new 0 0 66 44;" xml:space="preserve">
<style type="text/css">
	.st0{fill:#FFFFFF;}
	.st1{fill:#010101;}
</style>
<g id="XMLID_67_">
	<g id="XMLID_1943_">
		<g id="XMLID_68_">
			<polygon id="XMLID_82_" class="st0" points="45.9,38.4 2.2,38.4 19.9,24.3 63.7,24.3 			"/>
			<path id="XMLID_83_" class="st1" d="M45.9,38.9H2.2l-0.3-0.9L19.6,24l0.3-0.1h43.7l0.3,0.9L46.2,38.8L45.9,38.9z M3.6,37.9h42.1
				l16.5-13.1H20.1L3.6,37.9z"/>
		</g>
		<g id="XMLID_66_">
			<polygon id="XMLID_78_" class="st0" points="2,38.8 2,42.8 46,42.8 63,27.5 63,24 45.7,38.8 			"/>
			<path id="XMLID_79_" class="st1" d="M46,42.8H2.5L2,42.3v-4l0.5-0.5h43l17.6-14.2L64,24v3.4l-0.2,0.4L46.3,42.7L46,42.8z M3,41.8
				h42.8L63,27.2v-2.1L46,38.7l-0.3,0.1H3V41.8z"/>
		</g>
	</g>
	<g id="XMLID_1939_">
		<g id="XMLID_1942_">
			<polygon id="XMLID_74_" class="st0" points="45.9,27.4 2.2,27.4 19.9,13.3 63.7,13.3 			"/>
			<path id="XMLID_75_" class="st1" d="M45.9,27.9H2.2l-0.3-0.9L19.6,13l0.3-0.1h43.7l0.3,0.9L46.2,27.8L45.9,27.9z M3.6,26.9h42.1
				l16.5-13.1H20.1L3.6,26.9z"/>
		</g>
		<g id="XMLID_1940_">
			<polygon id="XMLID_70_" class="st0" points="2,27.8 2,31.8 46,31.8 63,16.5 63,13 45.7,27.8 			"/>
			<path id="XMLID_71_" class="st1" d="M46,31.8H2.5L2,31.3v-4l0.5-0.5h43l17.6-14.2L64,13v3.4l-0.2,0.4L46.3,31.7L46,31.8z M3,30.8
				h42.8L63,16.2v-2.1L46,27.7l-0.3,0.1H3V30.8z"/>
		</g>
	</g>
	<g id="XMLID_1938_">
		<polygon id="XMLID_60_" class="st0" points="45.9,15.4 2.2,15.4 19.9,1.3 63.7,1.3 		"/>
		<path id="XMLID_61_" class="st1" d="M45.9,15.9H2.2l-0.3-0.9L19.6,1l0.3-0.1h43.7L64,1.7L46.2,15.8L45.9,15.9z M3.6,14.9h42.1
			L62.2,1.9H20.1L3.6,14.9z"/>
	</g>
	<g id="XMLID_65_">
		<polygon id="XMLID_53_" class="st0" points="2,15.8 2,19.8 46,19.8 63,4.5 63,1 45.7,15.8 		"/>
		<path id="XMLID_57_" class="st1" d="M46,19.8H2.5L2,19.3v-4l0.5-0.5h43L63.2,0.6L64,1v3.4l-0.2,0.4L46.3,19.7L46,19.8z M3,18.8
			h42.8L63,4.2V2.1L46,15.7l-0.3,0.1H3V18.8z"/>
	</g>
	<g id="XMLID_64_">
		<rect id="XMLID_56_" x="45" y="14.8" class="st1" width="1" height="5"/>
	</g>
	<g id="XMLID_1934_">
		<rect id="XMLID_55_" x="45" y="26.8" class="st1" width="1" height="4"/>
	</g>
	<g id="XMLID_63_">
		<rect id="XMLID_54_" x="45" y="37.8" class="st1" width="1" height="4"/>
	</g>
</g>
</svg>
