<?xml version="1.0" encoding="utf-8"?>
<!-- Generator: Adobe Illustrator 19.0.0, SVG Export Plug-In . SVG Version: 6.00 Build 0)  -->
<svg version="1.1" id="Layer_1" xmlns="http://www.w3.org/2000/svg" xmlns:xlink="http://www.w3.org/1999/xlink" x="0px" y="0px"
	 viewBox="0 0 205.2 308.9" style="enable-background:new 0 0 205.2 308.9;" xml:space="preserve">
<style type="text/css">
	.st0{fill:#FFFFFF;}
</style>
<g>
	<g>
		<path class="st0" d="M158.8,292.9c-19.7,0-39.4,0-59.1,0c0-9.8,0-19.5,0-29.4c-20.4,0-40.7,0-60.9,0c0-0.1,0-0.1,0-0.2
			c20.3-6.3,40.6-12.6,60.9-18.9c0-14.9,0-29.7,0-44.5c-31.7,0-63.3,0-94.8,0c0-1.6,0-3.3,0-4.9c0.4,0,0.9,0,1.3,0
			c30.7,0,61.4,0,92.1,0c0.5,0,0.9,0,1.4,0c0-18.5,0-36.8,0-55.1c-6.7,0-13.4,0-20.2,0c0,8.6,0,17.1,0,25.6c-6.1,0-12.1,0-18.2,0
			c0-8.6,0-17.1,0-25.6c-6.6,0-13,0-19.6,0c0,8.6,0,17.1,0,25.6c-5.6,0-11.1,0-16.7,0c0-8.6,0-17.1,0-25.7c-0.6,0-1,0-1.4,0
			c-6.3,0-12.5,0-18.8,0c0-0.7,0-1.3,0-2c8.8-1.3,17.6-2.7,26.4-4c10.2-1.5,20.3-3.1,30.5-4.6c10.2-1.5,20.3-3.1,30.5-4.6
			c2.5-0.4,5-0.8,7.5-1.2c0-14,0-27.9,0-41.9c-21-3.4-42-6.9-63.1-10.3c0-0.1,0-0.2,0-0.2c21-3.1,42-6.2,63-9.3
			c0-13.8,0-27.5,0-41.2c-4.7-0.8-9.3-1.6-14-2.3c-12.4-2.1-24.8-4.1-37.2-6.2c-11.9-2-23.7-3.9-35.6-5.9c-2.4-0.4-4.8-0.9-7.2-1.3
			c63.5,0,127,0,190.5,0c0,53.6,0,107.2,0,160.7c-6.3,0-12.6,0-19.1,0c0,12.7,0,25.3,0,37.9c-0.1,0-0.1,0-0.2,0
			c-3.9-12.6-7.9-25.2-11.8-37.8c-9.4,0-18.8,0-28.2,0c0,20.2,0,40.3,0,60.4c6.3,0,12.6,0,19,0c0-12.4,0-24.8,0-37.1
			c0.3,0.3,0.4,0.5,0.4,0.8c3.5,11.2,7,22.5,10.4,33.7c0.8,2.7,0.8,2.7,3.7,2.7c8.6,0,17.2,0,25.7,0c0,22.2,0,44.5,0,66.7
			c-4.2,0-8.4,0-12.5,0c0.3-0.1,0.6-0.2,1-0.2c6.1-0.9,10.1-4.3,10.8-10.2c0.6-4.9,0.5-9.9,0.7-14.9c-6.6,0-12.9,0-19.2,0
			c-0.1,0.2-0.1,0.2-0.1,0.3c0,1.5,0.1,3,0,4.5c-0.1,1.5-0.2,3-0.6,4.4c-0.6,2.2-2.4,3.3-4.7,3.4c-2.4,0.1-4.2-0.9-5-3
			c-0.5-1.3-0.7-2.7-0.8-4c-0.1-6.5,0-12.9,0-19.4c0-1.4-0.1-2.8,0-4.3c0.2-2.3,1-4.3,3.4-5.2c3.7-1.4,7.2,1,7.5,5
			c0.2,2.2,0.1,4.4,0.1,6.6c0,0.4,0,0.8,0.1,1.1c6.4,0,12.7,0,18.8,0c0-4.8,0.2-9.4-0.1-14.1c-0.3-4.6-2.3-8.4-6.8-10.2
			c-2.2-0.8-4.6-1.3-7-1.4c-6.5-0.2-13.1-0.1-19.6-0.1c-1.8,0-3.7,0.2-5.4,0.5c-5.1,0.9-8.5,3.9-9.6,9c-0.4,1.6-0.5,3.3-0.5,5
			c0,10.7,0,21.3,0,32c0,1.3,0.1,2.7,0.3,4c0.7,5.7,4,9.2,9.5,10.5C157.3,292.6,158,292.7,158.8,292.9z M131.5,226.1
			c0-20.2,0-40.3,0-60.4c-6.3,0-12.6,0-18.9,0c0,20.2,0,40.3,0,60.4C118.9,226.1,125.2,226.1,131.5,226.1z"/>
		<path d="M5.7,4.8c2.4,0.4,4.8,0.9,7.2,1.3c11.9,2,23.7,4,35.6,5.9c12.4,2.1,24.8,4.1,37.2,6.2c4.6,0.8,9.3,1.5,14,2.3
			c0,13.7,0,27.4,0,41.2c-21,3.1-42,6.2-63,9.3c0,0.1,0,0.2,0,0.2c21,3.4,42,6.9,63.1,10.3c0,14,0,27.9,0,41.9
			c-2.5,0.4-5,0.8-7.5,1.2c-10.2,1.5-20.3,3.1-30.5,4.6c-10.2,1.5-20.3,3.1-30.5,4.6c-8.8,1.3-17.6,2.7-26.4,4c0-9.8,0-19.6,0-29.3
			c0.4-0.1,0.8-0.2,1.2-0.2c7.4-1.1,14.7-2.2,22.1-3.3c8.8-1.3,17.5-2.6,26.3-3.9c2.5-0.4,5.1-0.8,7.6-1.2c-0.2-0.2-0.3-0.3-0.5-0.3
			c-5.2-0.8-10.4-1.7-15.7-2.5c-10.9-1.8-21.8-3.5-32.8-5.3c-2.8-0.4-5.5-0.8-8.3-1.2c0-13.1,0-26.1,0-39.2c0.4,0,0.7,0,1.1,0
			c6.6-1,13.1-2,19.7-3c11.3-1.7,22.5-3.4,33.8-5.1c1.8-0.3,3.6-0.6,5.4-0.8c-6.1-1.2-12.2-2.2-18.3-3.2c-9.5-1.5-19-3.1-28.5-4.6
			c-4.4-0.7-8.8-1.4-13.2-2.1c0-9.3,0-18.5,0-27.8C5.1,4.8,5.4,4.8,5.7,4.8z"/>
		<path d="M4.8,200c31.6,0,63.2,0,94.8,0c0,14.8,0,29.6,0,44.5c-20.2,6.3-40.6,12.6-60.9,18.9c0,0.1,0,0.1,0,0.2
			c20.3,0,40.5,0,60.9,0c0,9.9,0,19.6,0,29.4c-31.6,0-63.2,0-94.9,0c0-14.7,0-29.4,0-44.1c0.3-0.1,0.5-0.1,0.8-0.2
			c19-5.9,38.1-11.9,57.1-17.8c1.1-0.4,2.3-0.7,3.4-1.1c0-0.1,0-0.2,0-0.3c-0.4,0-0.8,0-1.2,0c-19.5,0-39.1,0-58.6,0
			c-0.5,0-1,0.1-1.4,0.1C4.8,219.7,4.8,209.9,4.8,200z"/>
		<path d="M4.8,139.8c6.3,0,12.5,0,18.8,0c0.4,0,0.9,0,1.4,0c0,8.6,0,17.1,0,25.7c5.6,0,11,0,16.7,0c0-8.5,0-17,0-25.6
			c6.6,0,13,0,19.6,0c0,8.5,0,17,0,25.6c6.1,0,12.1,0,18.2,0c0-8.5,0-17,0-25.6c6.8,0,13.4,0,20.2,0c0,18.3,0,36.6,0,55.1
			c-0.4,0-0.9,0-1.4,0c-30.7,0-61.4,0-92.1,0c-0.4,0-0.9,0-1.3,0C4.8,176.7,4.8,158.2,4.8,139.8z"/>
		<path d="M196.2,226.2c-8.6,0-17.2,0-25.7,0c-2.8,0-2.8,0-3.7-2.7c-3.5-11.2-7-22.5-10.4-33.7c-0.1-0.3-0.2-0.5-0.4-0.8
			c0,12.3,0,24.7,0,37.1c-6.4,0-12.7,0-19,0c0-20.1,0-40.2,0-60.4c9.4,0,18.7,0,28.2,0c3.9,12.6,7.9,25.2,11.8,37.8
			c0.1,0,0.1,0,0.2,0c0-12.6,0-25.1,0-37.9c6.4,0,12.8,0,19.1,0C196.2,185.8,196.2,206,196.2,226.2z"/>
		<path d="M158.8,292.9c-0.8-0.2-1.6-0.3-2.4-0.5c-5.5-1.3-8.7-4.9-9.5-10.5c-0.2-1.3-0.3-2.7-0.3-4c0-10.7,0-21.3,0-32
			c0-1.7,0.2-3.4,0.5-5c1.2-5.1,4.5-8.1,9.6-9c1.8-0.3,3.6-0.5,5.4-0.5c6.5,0,13.1-0.1,19.6,0.1c2.3,0.1,4.8,0.6,7,1.4
			c4.5,1.8,6.5,5.7,6.8,10.2c0.3,4.6,0.1,9.3,0.1,14.1c-6.1,0-12.4,0-18.8,0c0-0.3-0.1-0.7-0.1-1.1c0-2.2,0-4.4-0.1-6.6
			c-0.3-4.1-3.8-6.4-7.5-5c-2.4,0.9-3.2,2.9-3.4,5.2c-0.1,1.4,0,2.8,0,4.3c0,6.5,0,12.9,0,19.4c0,1.3,0.3,2.8,0.8,4
			c0.8,2.2,2.5,3.1,5,3c2.4-0.1,4.1-1.2,4.7-3.4c0.4-1.4,0.5-2.9,0.6-4.4c0.1-1.5,0-3,0-4.5c0-0.1,0-0.1,0.1-0.3
			c6.3,0,12.6,0,19.2,0c-0.2,5-0.1,10-0.7,14.9c-0.7,5.9-4.7,9.3-10.8,10.2c-0.3,0-0.6,0.2-1,0.2
			C175.4,292.9,167.1,292.9,158.8,292.9z"/>
		<path class="st0" d="M4.8,229.6c0.5,0,1-0.1,1.4-0.1c19.5,0,39.1,0,58.6,0c0.4,0,0.8,0,1.2,0c0,0.1,0,0.2,0,0.3
			c-1.1,0.4-2.3,0.7-3.4,1.1c-19,5.9-38.1,11.9-57.1,17.8c-0.2,0.1-0.5,0.1-0.8,0.2C4.8,242.4,4.8,236,4.8,229.6z"/>
		<path class="st0" d="M4.8,32.6c4.4,0.7,8.8,1.4,13.2,2.1c9.5,1.5,19,3.1,28.5,4.6c6.1,1,12.2,2,18.3,3.2c-1.8,0.3-3.6,0.6-5.4,0.8
			c-11.3,1.7-22.5,3.4-33.8,5.1c-6.6,1-13.1,2-19.7,3c-0.4,0.1-0.7,0-1.1,0C4.8,45.1,4.8,38.8,4.8,32.6z"/>
		<path class="st0" d="M4.8,90.5c2.8,0.4,5.5,0.8,8.3,1.2C24,93.5,34.9,95.3,45.8,97c5.2,0.8,10.4,1.7,15.7,2.5
			c0.2,0,0.3,0.1,0.5,0.3c-2.5,0.4-5.1,0.8-7.6,1.2c-8.8,1.3-17.5,2.6-26.3,3.9c-7.4,1.1-14.7,2.2-22.1,3.3
			c-0.4,0.1-0.8,0.1-1.2,0.2C4.8,102.5,4.8,96.5,4.8,90.5z"/>
		<path d="M131.5,226.1c-6.3,0-12.6,0-18.9,0c0-20.2,0-40.2,0-60.4c6.3,0,12.5,0,18.9,0C131.5,185.8,131.5,205.9,131.5,226.1z"/>
	</g>
</g>
</svg>
