<?xml version="1.0" encoding="utf-8"?>
<!-- Generator: Adobe Illustrator 19.0.0, SVG Export Plug-In . SVG Version: 6.00 Build 0)  -->
<svg version="1.1" id="Layer_1" xmlns="http://www.w3.org/2000/svg" xmlns:xlink="http://www.w3.org/1999/xlink" x="0px" y="0px"
	 viewBox="0 0 45 45" style="enable-background:new 0 0 45 45;" xml:space="preserve">
<style type="text/css">
	.st0{fill:#231F20;}
	.st1{fill:none;stroke:#231F20;stroke-miterlimit:10;}
	.st2{fill:#010101;}
	.st3{fill:none;stroke:#010101;stroke-miterlimit:10;}
</style>
<g id="XMLID_1327_">
	<path id="XMLID_1413_" class="st0" d="M-385,24c0.4,1.4,0.8,2.6,1,3.4h0c0.2-0.7,0.6-2.2,1-3.5l2.8-8.6h2.9l-5.5,15.9h-2.5
		l-2.8-9.1c-0.4-1.3-0.8-2.6-0.9-3h0c-0.1,0.4-0.4,1.6-0.9,3l-2.9,9h-2.6l-5.5-15.9h2.9l2.9,8.7c0.4,1.3,0.8,2.7,1,3.4h0
		c0.2-0.8,0.6-2.1,1-3.4l2.8-8.7h2.4L-385,24z"/>
	<path id="XMLID_1400_" class="st0" d="M-359.9,31.4c-0.3,0.1-0.9,0.1-1.6,0.1c-1.9,0-2.6-0.8-2.7-2.1h0c-0.5,0.8-1.9,2.2-4.9,2.2
		c-3.2,0-5.4-1.7-5.4-4.8c0-1.8,0.8-3,2-3.7c1.2-0.7,2.9-1.1,4.6-1.4l2.2-0.4c1-0.2,1.3-0.3,1.3-1v-0.3c0-1.7-0.5-2.9-3.4-2.9
		c-2.9,0-3.7,1.5-3.7,3.4l-2.7-0.3c-0.1-3.6,3-5.3,6.6-5.3c3.5,0,5.9,1,5.9,5v8.1c0,1.1,0.4,1.4,1.4,1.4h0.4V31.4z M-364.3,23.1
		c-0.2,0.1-0.7,0.2-1.8,0.5l-1.5,0.3c-1.2,0.3-2.4,0.5-3.1,1c-0.5,0.4-0.8,0.9-0.8,1.7c0,1.8,1.4,2.8,3.4,2.8c2,0,3.9-1,3.9-3.4
		V23.1z"/>
	<path id="XMLID_1350_" class="st0" d="M-352.3,31.2h-2.8V8.5h2.8V31.2z"/>
	<path id="XMLID_1344_" class="st0" d="M-343.3,31.2h-2.8V8.5h2.8V31.2z"/>
	<path id="XMLID_1335_" class="st0" d="M-334.4,28.9v8.7h-2.8V15.3h2.8v2.3c0.6-1.1,2.2-2.7,5.1-2.7c4,0,7,3,7,8.4
		c0,5.2-2.9,8.3-6.9,8.3C-332.2,31.6-333.8,29.9-334.4,28.9z M-329.7,29.3c2.9,0,4.6-2.2,4.6-6.1c0-3.9-1.9-6-4.7-6
		c-2.7,0-4.9,2-4.9,6C-334.7,27.3-332.5,29.3-329.7,29.3z"/>
	<path id="XMLID_1333_" class="st0" d="M-313.9,31.2h-2.8V8.5h2.8V31.2z"/>
	<path id="XMLID_1330_" class="st0" d="M-293.8,31.4c-0.3,0.1-0.9,0.1-1.6,0.1c-1.9,0-2.6-0.8-2.7-2.1h0c-0.5,0.8-1.9,2.2-4.9,2.2
		c-3.2,0-5.4-1.7-5.4-4.8c0-1.8,0.8-3,2-3.7c1.2-0.7,2.9-1.1,4.7-1.4l2.2-0.4c1-0.2,1.3-0.3,1.3-1v-0.3c0-1.7-0.5-2.9-3.4-2.9
		c-2.9,0-3.7,1.5-3.7,3.4l-2.7-0.3c-0.1-3.6,3-5.3,6.6-5.3c3.5,0,5.9,1,5.9,5v8.1c0,1.1,0.4,1.4,1.4,1.4h0.4V31.4z M-298.2,23.1
		c-0.2,0.1-0.7,0.2-1.8,0.5l-1.5,0.3c-1.2,0.3-2.4,0.5-3.1,1c-0.5,0.4-0.8,0.9-0.8,1.7c0,1.8,1.4,2.8,3.4,2.8c2,0,3.9-1,3.9-3.4
		V23.1z"/>
	<path id="XMLID_1328_" class="st0" d="M-284.3,34.5c-1,2.8-2.5,3.4-4.8,3.4c-0.8,0-1.5-0.1-2-0.2v-2.2c0.7,0.1,1.2,0.2,1.8,0.2
		c0.8,0,1.5-0.1,2-0.6c0.3-0.3,0.6-0.8,0.9-1.6l0.7-2l-5.5-16h2.9l3.1,9.6c0.4,1.3,0.9,2.8,0.9,2.8h0c0,0,0.5-1.6,1-3l3.2-9.4h2.8
		L-284.3,34.5z"/>
</g>
<rect id="XMLID_1306_" x="317.9" y="7.2" class="st1" width="59.7" height="30.3"/>
<text id="XMLID_1305_" transform="matrix(1 0 0 1 332.3217 25.7645)" class="st2" style="font-family:'Theinhardt-Medium'; font-size:12.4454px;">apply </text>
<line id="XMLID_602_" class="st3" x1="0" y1="0.5" x2="45" y2="0.5"/>
<line id="XMLID_622_" class="st3" x1="0" y1="22.5" x2="45" y2="22.5"/>
<line id="XMLID_599_" class="st3" x1="0" y1="44.5" x2="45" y2="44.5"/>
</svg>
