<?xml version="1.0" encoding="utf-8"?>
<!-- Generator: Adobe Illustrator 21.0.2, SVG Export Plug-In . SVG Version: 6.00 Build 0)  -->
<svg version="1.1" id="Layer_1" xmlns="http://www.w3.org/2000/svg" xmlns:xlink="http://www.w3.org/1999/xlink" x="0px" y="0px"
	 viewBox="0 0 44.1 44" style="enable-background:new 0 0 44.1 44;" xml:space="preserve">
<style type="text/css">
	.st0{display:none;}
	.st1{display:inline;}
	.st2{fill:#FFFFFF;}
	.st3{fill:#010101;}
	.st4{fill:none;stroke:#000000;stroke-width:2;stroke-miterlimit:10;}
</style>
<g id="Layer_1_1_" class="st0">
	<g id="XMLID_67_" class="st1">
		<g id="XMLID_1943_">
			<g id="XMLID_68_">
				<polygon id="XMLID_82_" class="st2" points="34.8,38.4 -8.9,38.4 8.8,24.3 52.6,24.3 				"/>
				<path id="XMLID_83_" class="st3" d="M34.8,38.9H-8.9L-9.2,38L8.5,24l0.3-0.1h43.7l0.3,0.9l-17.7,14L34.8,38.9z M-7.5,37.9h42.1
					l16.5-13.1H9L-7.5,37.9z"/>
			</g>
			<g id="XMLID_66_">
				<polygon id="XMLID_78_" class="st2" points="-9.1,38.8 -9.1,42.8 34.9,42.8 51.9,27.5 51.9,24 34.6,38.8 				"/>
				<path id="XMLID_79_" class="st3" d="M34.9,42.8H-8.6l-0.5-0.5v-4l0.5-0.5h43L52,23.6l0.9,0.4v3.4l-0.2,0.4L35.2,42.7L34.9,42.8z
					 M-8.1,41.8h42.8l17.2-14.6v-2.1l-17,13.6l-0.3,0.1H-8.1V41.8z"/>
			</g>
		</g>
		<g id="XMLID_1939_">
			<g id="XMLID_1942_">
				<polygon id="XMLID_74_" class="st2" points="34.8,27.4 -8.9,27.4 8.8,13.3 52.6,13.3 				"/>
				<path id="XMLID_75_" class="st3" d="M34.8,27.9H-8.9L-9.2,27L8.5,13l0.3-0.1h43.7l0.3,0.9l-17.7,14L34.8,27.9z M-7.5,26.9h42.1
					l16.5-13.1H9L-7.5,26.9z"/>
			</g>
			<g id="XMLID_1940_">
				<polygon id="XMLID_70_" class="st2" points="-9.1,27.8 -9.1,31.8 34.9,31.8 51.9,16.5 51.9,13 34.6,27.8 				"/>
				<path id="XMLID_71_" class="st3" d="M34.9,31.8H-8.6l-0.5-0.5v-4l0.5-0.5h43L52,12.6l0.9,0.4v3.4l-0.2,0.4L35.2,31.7L34.9,31.8z
					 M-8.1,30.8h42.8l17.2-14.6v-2.1l-17,13.6l-0.3,0.1H-8.1V30.8z"/>
			</g>
		</g>
		<g id="XMLID_1938_">
			<polygon id="XMLID_60_" class="st2" points="34.8,15.4 -8.9,15.4 8.8,1.3 52.6,1.3 			"/>
			<path id="XMLID_61_" class="st3" d="M34.8,15.9H-8.9L-9.2,15L8.5,1l0.3-0.1h43.7l0.4,0.8L35.1,15.8L34.8,15.9z M-7.5,14.9h42.1
				l16.5-13H9L-7.5,14.9z"/>
		</g>
		<g id="XMLID_65_">
			<polygon id="XMLID_53_" class="st2" points="-9.1,15.8 -9.1,19.8 34.9,19.8 51.9,4.5 51.9,1 34.6,15.8 			"/>
			<path id="XMLID_57_" class="st3" d="M34.9,19.8H-8.6l-0.5-0.5v-4l0.5-0.5h43L52.1,0.6L52.9,1v3.4l-0.2,0.4L35.2,19.7L34.9,19.8z
				 M-8.1,18.8h42.8L51.9,4.2V2.1l-17,13.6l-0.3,0.1H-8.1V18.8z"/>
		</g>
		<g id="XMLID_64_">
			<rect id="XMLID_56_" x="33.9" y="14.8" class="st3" width="1" height="5"/>
		</g>
		<g id="XMLID_1934_">
			<rect id="XMLID_55_" x="33.9" y="26.8" class="st3" width="1" height="4"/>
		</g>
		<g id="XMLID_63_">
			<rect id="XMLID_54_" x="33.9" y="37.8" class="st3" width="1" height="4"/>
		</g>
	</g>
</g>
<path d="M13.5,19.5l-2.1-7.1c-0.4-1.2-0.6-2-0.6-2h0c0,0.5,0.1,2,0.1,4.2v4.9H8.8V7.8H12l1.9,6.5c0.3,1.1,0.6,1.9,0.7,2.4h0
	c0.1-0.5,0.4-1.5,0.7-2.5l1.8-6.4h3.3v11.7h-2.1v-4.9c0-1.6,0.1-3.5,0.1-4.5h0c-0.1,0.5-0.3,1.3-0.6,2.3l-2.1,7.1H13.5z"/>
<polygon points="28.2,9.7 28.2,12.6 34.1,12.6 34.1,14.4 28.2,14.4 28.2,17.7 35.1,17.7 35.1,19.5 26.1,19.5 26.1,7.8 34.7,7.8 
	34.7,9.7 "/>
<path d="M15.8,31.5c0.3,0.4,0.8,1.2,0.9,1.4c0-0.4,0-2.5,0-4.2v-3.9h2.1v11.7h-2l-4.8-7c-0.4-0.6-0.8-1.2-0.8-1.2c0,0.5,0,2.4,0,4.3
	v3.9H9.1V24.8h2L15.8,31.5z"/>
<path d="M32.4,33.4c0.2-0.4,0.3-0.8,0.3-2v-6.8h2.1v6.8c0,1.7-0.2,2.5-0.6,3.2c-0.8,1.3-2.3,1.8-4.1,1.8s-3.3-0.5-4.1-1.8
	c-0.5-0.7-0.6-1.5-0.6-3.2v-6.8h2.1v6.8c0,1.2,0.1,1.6,0.3,2c0.4,0.8,1.2,1.2,2.3,1.2S32,34.3,32.4,33.4z"/>
<rect x="1.7" y="1.8" class="st4" width="40.4" height="40.4"/>
</svg>
