<?xml version="1.0" encoding="utf-8"?>
<!-- Generator: Adobe Illustrator 19.0.0, SVG Export Plug-In . SVG Version: 6.00 Build 0)  -->
<svg version="1.1" id="Layer_1" xmlns="http://www.w3.org/2000/svg" xmlns:xlink="http://www.w3.org/1999/xlink" x="0px" y="0px"
	 viewBox="0 0 144 36" style="enable-background:new 0 0 144 36;" xml:space="preserve">
<g>
	<path d="M18.8,19c0.5,1.6,0.9,3.1,1.2,4h0c0.2-0.9,0.7-2.6,1.2-4.1l3.2-10h3.3l-6.4,18.4h-2.9l-3.2-10.5c-0.5-1.5-0.9-3-1-3.4h0
		c-0.1,0.5-0.5,1.9-1,3.5L9.8,27.3h-3L0.5,8.9h3.4L7.3,19c0.5,1.5,1,3.1,1.2,4h0c0.2-0.9,0.7-2.4,1.2-4L13,8.9h2.8L18.8,19z"/>
	<path d="M47.8,27.6c-0.4,0.1-1,0.2-1.8,0.2c-2.2,0-3-1-3.1-2.5h0c-0.6,1-2.2,2.6-5.7,2.6c-3.8,0-6.3-2-6.3-5.6
		c0-2.1,0.9-3.5,2.4-4.3c1.4-0.9,3.4-1.2,5.4-1.6l2.5-0.4c1.2-0.2,1.5-0.3,1.5-1.1v-0.4c0-1.9-0.6-3.3-3.9-3.3
		c-3.3,0-4.3,1.7-4.3,3.9l-3.1-0.3c-0.1-4.1,3.4-6.2,7.6-6.2c4.1,0,6.9,1.2,6.9,5.8v9.4c0,1.3,0.5,1.7,1.6,1.7h0.4V27.6z M42.7,18
		c-0.3,0.1-0.8,0.3-2.1,0.5l-1.8,0.4c-1.4,0.3-2.8,0.6-3.6,1.2c-0.6,0.4-1,1.1-1,2c0,2.1,1.6,3.2,3.9,3.2c2.3,0,4.6-1.1,4.6-4V18z"
		/>
	<path d="M56.6,27.3h-3.2V1h3.2V27.3z"/>
	<path d="M67.1,27.3h-3.2V1h3.2V27.3z"/>
	<path d="M77.4,24.6v10.1h-3.2V8.9h3.2v2.7c0.7-1.3,2.6-3.1,5.9-3.1c4.6,0,8.1,3.5,8.1,9.7c0,6-3.3,9.6-8,9.6
		C79.9,27.8,78,25.9,77.4,24.6z M82.8,25.1c3.3,0,5.3-2.6,5.3-7c0-4.5-2.2-7-5.4-7c-3.2,0-5.7,2.3-5.7,7
		C77.1,22.8,79.6,25.1,82.8,25.1z"/>
	<path d="M101.1,27.3h-3.2V1h3.2V27.3z"/>
	<path d="M124.4,27.6c-0.4,0.1-1,0.2-1.8,0.2c-2.2,0-3-1-3.1-2.5h0c-0.6,1-2.2,2.6-5.7,2.6c-3.8,0-6.3-2-6.3-5.6
		c0-2.1,0.9-3.5,2.4-4.3c1.4-0.9,3.4-1.2,5.4-1.6l2.5-0.4c1.2-0.2,1.5-0.3,1.5-1.1v-0.4c0-1.9-0.6-3.3-3.9-3.3
		c-3.3,0-4.3,1.7-4.3,3.9l-3.1-0.3c-0.1-4.1,3.4-6.2,7.6-6.2c4.1,0,6.9,1.2,6.9,5.8v9.4c0,1.3,0.5,1.7,1.6,1.7h0.4V27.6z M119.3,18
		c-0.3,0.1-0.8,0.3-2.1,0.5l-1.8,0.4c-1.4,0.3-2.8,0.6-3.6,1.2c-0.6,0.4-1,1.1-1,2c0,2.1,1.6,3.2,3.9,3.2c2.3,0,4.6-1.1,4.6-4V18z"
		/>
	<path d="M135.4,31.1c-1.2,3.2-2.9,3.9-5.6,3.9c-1,0-1.7-0.1-2.3-0.2v-2.6c0.8,0.1,1.4,0.2,2.1,0.2c0.9,0,1.7-0.1,2.3-0.7
		c0.4-0.4,0.7-0.9,1-1.9l0.8-2.4l-6.4-18.5h3.4l3.6,11.2c0.5,1.5,1,3.2,1,3.2h0c0,0,0.5-1.8,1.1-3.4l3.8-10.9h3.2L135.4,31.1z"/>
</g>
</svg>
